<svg width="16" height="17" viewBox="0 0 16 17" fill="none" xmlns="http://www.w3.org/2000/svg">
<path d="M15.6875 6.46875C14.9688 7.03125 14.0625 7.71875 10.875 10.0312C10.25 10.5 9.09375 11.5312 8 11.5312C6.875 11.5312 5.75 10.5 5.09375 10.0312C1.90625 7.71875 1 7.03125 0.28125 6.46875C0.15625 6.375 0 6.46875 0 6.625V13C0 13.8438 0.65625 14.5 1.5 14.5H14.5C15.3125 14.5 16 13.8438 16 13V6.625C16 6.46875 15.8125 6.375 15.6875 6.46875ZM8 10.5C8.71875 10.5312 9.75 9.59375 10.2812 9.21875C14.4375 6.21875 14.75 5.9375 15.6875 5.1875C15.875 5.0625 16 4.84375 16 4.59375V4C16 3.1875 15.3125 2.5 14.5 2.5H1.5C0.65625 2.5 0 3.1875 0 4V4.59375C0 4.84375 0.09375 5.0625 0.28125 5.1875C1.21875 5.9375 1.53125 6.21875 5.6875 9.21875C6.21875 9.59375 7.25 10.5312 8 10.5Z" fill="#C2C2C2"/>
</svg>
