<svg width="24" height="24" viewBox="0 0 24 24" fill="none" xmlns="http://www.w3.org/2000/svg">
<path d="M12 8.00781C9.5 8.00781 7.50781 10.0391 7.50781 12.5C7.50781 15 9.5 16.9922 12 16.9922C14.4609 16.9922 16.4922 15 16.4922 12.5C16.4922 10.0391 14.4609 8.00781 12 8.00781ZM12 15.4297C10.3984 15.4297 9.07031 14.1406 9.07031 12.5C9.07031 10.8984 10.3594 9.60938 12 9.60938C13.6016 9.60938 14.8906 10.8984 14.8906 12.5C14.8906 14.1406 13.6016 15.4297 12 15.4297ZM17.7031 7.85156C17.7031 7.26562 17.2344 6.79688 16.6484 6.79688C16.0625 6.79688 15.5938 7.26562 15.5938 7.85156C15.5938 8.4375 16.0625 8.90625 16.6484 8.90625C17.2344 8.90625 17.7031 8.4375 17.7031 7.85156ZM20.6719 8.90625C20.5938 7.5 20.2812 6.25 19.2656 5.23438C18.25 4.21875 17 3.90625 15.5938 3.82812C14.1484 3.75 9.8125 3.75 8.36719 3.82812C6.96094 3.90625 5.75 4.21875 4.69531 5.23438C3.67969 6.25 3.36719 7.5 3.28906 8.90625C3.21094 10.3516 3.21094 14.6875 3.28906 16.1328C3.36719 17.5391 3.67969 18.75 4.69531 19.8047C5.75 20.8203 6.96094 21.1328 8.36719 21.2109C9.8125 21.2891 14.1484 21.2891 15.5938 21.2109C17 21.1328 18.25 20.8203 19.2656 19.8047C20.2812 18.75 20.5938 17.5391 20.6719 16.1328C20.75 14.6875 20.75 10.3516 20.6719 8.90625ZM18.7969 17.6562C18.5234 18.4375 17.8984 19.0234 17.1562 19.3359C15.9844 19.8047 13.25 19.6875 12 19.6875C10.7109 19.6875 7.97656 19.8047 6.84375 19.3359C6.0625 19.0234 5.47656 18.4375 5.16406 17.6562C4.69531 16.5234 4.8125 13.7891 4.8125 12.5C4.8125 11.25 4.69531 8.51562 5.16406 7.34375C5.47656 6.60156 6.0625 6.01562 6.84375 5.70312C7.97656 5.23438 10.7109 5.35156 12 5.35156C13.25 5.35156 15.9844 5.23438 17.1562 5.70312C17.8984 5.97656 18.4844 6.60156 18.7969 7.34375C19.2656 8.51562 19.1484 11.25 19.1484 12.5C19.1484 13.7891 19.2656 16.5234 18.7969 17.6562Z" fill="#C2C2C2"/>
</svg>
