<svg width="771" height="600" viewBox="0 0 771 600" fill="none" xmlns="http://www.w3.org/2000/svg">
<path d="M599.063 54.7504C650.614 86.4186 697.953 126.438 724.559 180.834C751.498 235.912 756.878 298.846 748.145 359.552C739.44 420.069 717.827 479.96 675.229 523.752C633.867 566.276 575.625 587.473 517.13 597.05C463.319 605.86 409.712 593.828 358.3 575.639C309.29 558.3 266.568 530.384 228.497 494.937C186.771 456.088 134.699 417.613 127.744 360.978C120.806 304.478 163.961 255.865 193.139 207.016C219.209 163.371 249.952 125.15 288.429 91.965C332.203 54.2112 374.572 7.93907 431.928 1.0677C491.221 -6.03567 548.159 23.4791 599.063 54.7504Z" fill="#F0F0F0"/>
<path d="M727.317 376.083C710.722 362.307 689.075 358.105 669.825 355.826C660.226 354.69 651.101 357.136 643.536 359.165C643.349 359.215 643.163 359.264 642.979 359.314C634.797 361.505 628.279 363.154 621.794 362.374C616.517 361.739 611.094 359.843 605.271 357.184C601.509 355.466 597.977 353.629 594.285 351.709C592.057 350.55 589.77 349.361 587.339 348.149C575.37 342.183 560.902 336.154 545.555 341.679C531.911 346.592 523.175 357.763 517.398 369.729C511.616 381.708 508.324 395.445 506.052 407.084C501.425 430.792 507.73 454.804 517.136 475.484C521.71 485.54 528.937 493.171 535.974 499.797C537.968 501.675 539.914 503.447 541.807 505.171C546.89 509.798 551.584 514.072 555.755 519.072C559.932 524.077 563.317 529.448 566.975 535.251C568.312 537.372 569.685 539.551 571.147 541.79C576.388 549.821 582.542 558.208 591.439 564.577C592.994 565.689 594.616 566.872 596.294 568.096C603.913 573.654 612.703 580.065 621.714 584.654C632.805 590.302 645.797 594.044 659.085 589.426C673.694 584.348 679.793 570.673 684.128 559.414C684.873 557.48 685.565 555.612 686.239 553.792C687.698 549.852 689.073 546.14 690.717 542.478C693.057 537.268 695.596 533.018 698.792 529.837C704.084 524.571 711.463 521.823 720.707 518.381C721.422 518.114 722.149 517.844 722.887 517.568C732.329 514.032 743.854 509.441 750.937 498.844C763.993 479.31 765.667 454.13 761.412 432.479C757.076 410.418 744.442 390.298 727.317 376.083Z" fill="#067655" stroke="white" stroke-width="15"/>
<path d="M27.5383 243.034C19.2049 275.898 34.8715 308.383 52.0296 335.495C68.3659 361.307 91.6048 381.642 120.924 391.211C150.886 400.99 184.926 403.56 213.444 387.803C242.06 371.992 257.261 341.46 265.936 311.199C274.618 280.914 277.763 247.051 262.016 218.417C246.251 189.751 216.119 173.948 185.732 165.435C155.293 156.907 122.777 157.029 93.8834 171.119C63.9745 185.705 36.0018 209.657 27.5383 243.034Z" fill="#067655" stroke="white" stroke-width="8"/>
</svg>
