<svg width="649" height="623" viewBox="0 0 649 623" fill="none" xmlns="http://www.w3.org/2000/svg">
<path d="M489.941 57.2406C489.388 56.901 488.835 56.5615 488.28 56.2223L488.019 56.6488C486.359 55.633 484.693 54.6193 483.02 53.6089L483.279 53.181C482.166 52.5087 481.051 51.8379 479.933 51.1688L479.676 51.5979C478.005 50.5979 476.328 49.602 474.646 48.6111L474.899 48.1803C473.78 47.5209 472.657 46.8637 471.532 46.2091L471.281 46.6413C469.597 45.6612 467.907 44.687 466.212 43.7196L466.46 43.2853C465.33 42.6407 464.198 41.9991 463.064 41.3609L462.818 41.7967C461.119 40.8409 459.415 39.8927 457.705 38.9531L457.946 38.5149C456.806 37.8883 455.663 37.2655 454.518 36.6468L454.28 37.0867C452.565 36.1597 450.844 35.2421 449.118 34.3349L449.35 33.8923C448.198 33.2866 447.044 32.6856 445.887 32.0896L445.658 32.5341C443.923 31.6405 442.184 30.7581 440.44 29.8879L440.663 29.4405C439.498 28.8593 438.33 28.2834 437.161 27.7134L436.942 28.1629C435.187 27.3078 433.428 26.4658 431.664 25.638L431.876 25.1853C430.698 24.6321 429.517 24.0851 428.333 23.5448L428.126 23.9996C426.35 23.1886 424.57 22.3925 422.785 21.6125L422.985 21.1544C421.79 20.6324 420.594 20.1177 419.395 19.6104L419.2 20.0709C417.402 19.3098 415.599 18.5656 413.792 17.8395L413.979 17.3755C412.769 16.8896 411.558 16.4117 410.344 15.9422L410.164 16.4086C408.343 15.7038 406.517 15.018 404.687 14.3523L404.858 13.8824C403.633 13.437 402.407 13.0004 401.178 12.5732L401.014 13.0455C399.169 12.404 397.32 11.7835 395.467 11.1852L395.621 10.7093C394.38 10.3085 393.136 9.91761 391.891 9.53696L391.745 10.0151C389.877 9.44419 388.006 8.89643 386.13 8.37301L386.264 7.89141C385.008 7.54087 383.75 7.20121 382.491 6.87277L382.365 7.3566C380.475 6.86398 378.582 6.39671 376.685 5.95595L376.798 5.46892C375.528 5.17388 374.256 4.89069 372.983 4.61969L372.879 5.10874C370.969 4.7024 369.056 4.32358 367.14 3.97346L367.229 3.4816C365.947 3.24725 364.662 3.02572 363.376 2.81737L363.296 3.31094C361.37 2.99894 359.44 2.71659 357.507 2.46509L357.572 1.96927C356.279 1.80104 354.985 1.64657 353.689 1.50622L353.635 2.00331C351.696 1.79338 349.755 1.61512 347.81 1.46975L347.847 0.971139C346.547 0.873994 345.246 0.791488 343.943 0.723979L343.917 1.22331C341.972 1.12247 340.023 1.0552 338.071 1.02269L338.079 0.522758C336.776 0.501051 335.472 0.49479 334.166 0.504329L334.17 1.00432C332.223 1.01854 330.274 1.06799 328.322 1.15384L328.3 0.654327C327 0.711498 325.698 0.784761 324.396 0.874464L324.43 1.37328C322.491 1.50688 320.548 1.67707 318.603 1.88499L318.55 1.38782C317.901 1.45722 317.252 1.5308 316.602 1.60862C315.939 1.68809 315.277 1.77263 314.617 1.86217L314.685 2.35762C312.707 2.62615 310.746 2.93984 308.801 3.29684L308.711 2.80506C307.401 3.0456 306.098 3.30572 304.803 3.58485L304.909 4.07363C302.96 4.49346 301.029 4.95647 299.113 5.46072L298.986 4.97719C297.699 5.31593 296.42 5.6732 295.147 6.04841L295.288 6.528C293.38 7.09057 291.488 7.69366 289.611 8.33528L289.449 7.86215C288.191 8.29214 286.939 8.73934 285.695 9.20317L285.869 9.6717C284.008 10.3653 282.161 11.0962 280.328 11.8625L280.135 11.4012C278.91 11.9134 277.691 12.4413 276.479 12.9843L276.683 13.4406C274.872 14.2516 273.074 15.0964 271.29 15.9731L271.069 15.5244C269.878 16.1092 268.694 16.7083 267.514 17.3208L267.745 17.7645C265.985 18.6784 264.237 19.6226 262.501 20.5952L262.257 20.1589C261.1 20.807 259.948 21.4676 258.802 22.1402L259.055 22.5715C257.345 23.5742 255.646 24.6035 253.958 25.6577L253.693 25.2336C252.568 25.9357 251.448 26.6488 250.333 27.3722L250.605 27.7918C248.942 28.8699 247.289 29.9712 245.645 31.0937L245.363 30.6808C244.269 31.4278 243.179 32.1842 242.093 32.9493L242.381 33.3581C240.761 34.4997 239.149 35.6611 237.545 36.8404L237.249 36.4376C236.182 37.2218 235.119 38.0139 234.059 38.8133L234.36 39.2125C232.778 40.4063 231.202 41.6167 229.634 42.8416L229.326 42.4476C228.282 43.2627 227.241 44.0842 226.203 44.9117L226.515 45.3027C224.964 46.5389 223.42 47.7884 221.881 49.0495L221.564 48.6628C220.54 49.5024 219.518 50.3472 218.498 51.1965L218.818 51.5807C217.293 52.8504 215.774 54.1304 214.26 55.4189L213.936 55.038C212.927 55.8962 211.92 56.7582 210.915 57.6234L211.241 58.0023C209.737 59.2974 208.237 60.5999 206.741 61.908L206.412 61.5316C205.414 62.4033 204.419 63.2774 203.425 64.1535L203.755 64.5286C202.265 65.8418 200.778 67.1593 199.294 68.4797L198.961 68.1061C197.972 68.9866 196.983 69.8683 195.995 70.7507L196.328 71.1236C194.846 72.4476 193.366 73.7731 191.888 75.0986L191.554 74.7263C190.695 75.4966 189.837 76.2668 188.979 77.0365L188.597 77.3788L188.931 77.751C187.451 79.0789 185.972 80.4055 184.494 81.729L184.161 81.3565C183.173 82.2406 182.186 83.1232 181.199 84.0039L181.532 84.377C180.048 85.7017 178.564 87.0222 177.08 88.3368L176.748 87.9624C175.755 88.8415 174.763 89.7179 173.769 90.591L174.1 90.9665C172.604 92.281 171.109 93.5882 169.611 94.8865L169.284 94.5087C168.784 94.9419 168.284 95.374 167.784 95.8051C167.293 96.2288 166.803 96.6533 166.314 97.0786L166.642 97.4559C165.175 98.7322 163.718 100.016 162.273 101.306L161.94 100.933C160.972 101.797 160.009 102.664 159.051 103.534L159.388 103.905C157.948 105.212 156.52 106.527 155.102 107.848L154.761 107.483C153.813 108.367 152.869 109.255 151.93 110.146L152.274 110.508C150.864 111.846 149.464 113.191 148.075 114.544L147.726 114.186C146.797 115.09 145.873 115.998 144.953 116.909L145.305 117.264C143.924 118.632 142.554 120.007 141.194 121.39L140.837 121.039C139.928 121.964 139.024 122.891 138.124 123.822L138.483 124.17C137.133 125.566 135.792 126.971 134.462 128.383L134.098 128.04C133.209 128.983 132.325 129.93 131.445 130.88L131.812 131.22C130.492 132.645 129.182 134.078 127.882 135.518L127.511 135.183C126.642 136.145 125.778 137.11 124.919 138.079L125.293 138.411C124.004 139.864 122.724 141.324 121.455 142.792L121.076 142.465C120.229 143.444 119.385 144.428 118.546 145.415L118.927 145.739C117.669 147.218 116.421 148.704 115.181 150.199L114.797 149.879C113.97 150.877 113.147 151.877 112.328 152.881L112.715 153.197C111.489 154.702 110.271 156.214 109.063 157.734L108.671 157.422C107.865 158.436 107.063 159.453 106.265 160.474L106.658 160.782C105.463 162.311 104.276 163.847 103.098 165.391L102.701 165.088C101.915 166.118 101.133 167.151 100.356 168.187L100.756 168.487C99.5909 170.039 98.4349 171.599 97.2872 173.166L96.8838 172.871C96.1187 173.915 95.3574 174.963 94.5998 176.015L95.0054 176.307C93.8715 177.881 92.7458 179.463 91.6281 181.052L91.2191 180.764C90.4744 181.823 89.7332 182.886 88.9955 183.952L89.4067 184.236C88.303 185.831 87.2072 187.434 86.1191 189.044L85.7048 188.764C84.9801 189.836 84.2587 190.912 83.5408 191.992L83.9571 192.269C82.8832 193.883 81.8168 195.505 80.7578 197.135L80.3385 196.863C79.6333 197.948 78.9315 199.037 78.2328 200.129L78.654 200.398C77.6092 202.032 76.5717 203.672 75.5411 205.321L75.1172 205.056C74.4312 206.153 73.7483 207.254 73.0685 208.358L73.4943 208.62C72.478 210.271 71.4686 211.929 70.4659 213.595L70.0375 213.337C69.7034 213.892 69.37 214.448 69.0374 215.005C68.7031 215.564 68.3671 216.124 68.0293 216.683L68.4574 216.942C67.4457 218.617 66.419 220.293 65.3795 221.969L64.9546 221.705C64.2659 222.816 63.5715 223.926 62.8722 225.037L63.2953 225.304C62.2517 226.962 61.1972 228.62 60.1342 230.279L59.7132 230.009C59.0079 231.109 58.2989 232.21 57.5868 233.312L58.0067 233.583C56.9419 235.23 55.8703 236.877 54.7941 238.526L54.3754 238.253C53.6606 239.348 52.9436 240.444 52.2254 241.54L52.6436 241.814C51.6893 243.27 50.7327 244.728 49.7752 246.187C49.6535 246.372 49.5317 246.558 49.41 246.743L48.992 246.469C48.2735 247.564 47.5546 248.659 46.836 249.755L47.2542 250.03C46.1773 251.672 45.1013 253.317 44.0281 254.964L43.6092 254.691C42.8938 255.789 42.1796 256.887 41.4674 257.987L41.887 258.259C40.8185 259.909 39.7544 261.561 38.6971 263.216L38.2757 262.947C37.5695 264.052 36.8662 265.159 36.1665 266.266L36.5892 266.533C35.5386 268.197 34.4962 269.863 33.4642 271.532L33.039 271.269C32.3485 272.386 31.6627 273.504 30.9823 274.623L31.4096 274.883C30.387 276.565 29.3766 278.251 28.3806 279.94L27.9499 279.686C27.2829 280.818 26.6222 281.951 25.9687 283.085L26.402 283.335C25.4187 285.042 24.4517 286.753 23.5032 288.468L23.0656 288.226C22.43 289.376 21.8025 290.527 21.1841 291.68L21.6248 291.917C20.6933 293.654 19.7823 295.395 18.8943 297.141L18.4486 296.915C17.852 298.088 17.2657 299.263 16.6904 300.441L17.1396 300.66C16.2743 302.431 15.434 304.208 14.6213 305.989L14.1664 305.781C13.62 306.979 13.0859 308.18 12.5649 309.383L13.0237 309.581C12.2403 311.39 11.4868 313.205 10.7657 315.026L10.3009 314.842C9.81614 316.066 9.34601 317.292 8.89126 318.522L9.36022 318.695C8.67658 320.544 8.0279 322.399 7.41685 324.26L6.94179 324.104C6.53131 325.355 6.13771 326.608 5.7618 327.865L6.24083 328.008C5.67648 329.895 5.15223 331.789 4.6708 333.69L4.1861 333.567C3.86308 334.842 3.55924 336.121 3.27541 337.404L3.76359 337.512C3.33862 339.432 2.95873 341.36 2.6267 343.295L2.13389 343.211C1.91152 344.507 1.7105 345.807 1.53167 347.111L2.02703 347.179C1.76032 349.124 1.54322 351.077 1.37848 353.038L0.880237 352.996C0.770349 354.304 0.683654 355.617 0.62097 356.933L1.1204 356.957C1.02727 358.912 0.987393 360.876 1.00347 362.85L0.503491 362.854C0.51417 364.164 0.54941 365.478 0.609994 366.797L1.10947 366.774C1.19907 368.724 1.34436 370.682 1.54791 372.65L1.05056 372.702C1.1184 373.358 1.19269 374.015 1.2735 374.673C1.35452 375.332 1.44143 375.99 1.53415 376.645L2.02921 376.574C2.30729 378.539 2.63785 380.482 3.01867 382.405L2.52819 382.502C2.78539 383.8 3.0654 385.09 3.36755 386.37L3.85418 386.255C4.30884 388.181 4.81388 390.087 5.36698 391.973L4.88719 392.114C5.25918 393.382 5.65281 394.642 6.06735 395.892L6.54196 395.735C7.16328 397.61 7.83185 399.465 8.54529 401.301L8.07924 401.482C8.55746 402.712 9.05573 403.935 9.57333 405.149L10.0333 404.953C10.8063 406.766 11.6227 408.56 12.4801 410.338L12.0297 410.555C12.6024 411.742 13.1933 412.921 13.8017 414.093L14.2454 413.862C15.1525 415.609 16.0986 417.339 17.0814 419.053L16.6477 419.302C17.3026 420.444 17.9737 421.579 18.6604 422.707L19.0875 422.447C20.11 424.127 21.1672 425.791 22.2567 427.441L21.8395 427.716C22.5646 428.814 23.3039 429.906 24.0568 430.991L24.4676 430.706C25.588 432.321 26.7385 433.923 27.9171 435.511L27.5156 435.809C28.2996 436.865 29.096 437.916 29.904 438.962L30.2996 438.656C31.5016 440.211 32.7296 441.753 33.9813 443.284L33.5942 443.601C34.4267 444.619 35.2696 445.632 36.1223 446.64L36.5041 446.318C37.7739 447.819 39.0656 449.309 40.3772 450.79L40.0029 451.121C40.874 452.104 41.7538 453.083 42.6416 454.057L43.0112 453.72C44.336 455.174 45.6789 456.619 47.0379 458.054L46.6748 458.398C47.5784 459.352 48.489 460.303 49.4061 461.25L49.7652 460.902C51.1344 462.316 52.5181 463.721 53.9142 465.119L53.5605 465.472C54.4898 466.402 55.4246 467.329 56.3643 468.253L56.7149 467.897C58.1191 469.277 59.5344 470.65 60.9587 472.017L60.6125 472.378C61.5613 473.289 62.5141 474.196 63.4702 475.101L63.8139 474.738C65.2451 476.093 66.684 477.441 68.1287 478.785L67.7883 479.151C68.7514 480.047 69.7171 480.94 70.6847 481.831L71.0234 481.463C72.4742 482.799 73.9295 484.13 75.3874 485.457L75.0508 485.827C76.0238 486.712 76.998 487.596 77.9726 488.478L78.3081 488.107C79.7717 489.432 81.2365 490.752 82.7006 492.07L82.3662 492.442C83.3441 493.322 84.3217 494.2 85.2983 495.078L85.6325 494.706C86.1756 495.194 86.7184 495.681 87.2608 496.168C88.1863 496.999 89.1106 497.83 90.0334 498.659L89.6992 499.031C90.6784 499.911 91.6557 500.79 92.6306 501.668L92.9653 501.297C94.4342 502.62 95.8977 503.942 97.3537 505.263L97.0178 505.633C97.9938 506.519 98.9664 507.403 99.9351 508.288L100.272 507.919C101.734 509.254 103.186 510.588 104.627 511.922L104.288 512.289C104.769 512.735 105.249 513.18 105.728 513.626C106.215 514.08 106.703 514.532 107.191 514.983L107.531 514.615C108.996 515.968 110.468 517.31 111.946 518.641L111.612 519.013C112.601 519.903 113.592 520.788 114.587 521.668L114.918 521.294C116.412 522.615 117.912 523.925 119.419 525.224L119.093 525.603C120.1 526.472 121.111 527.335 122.125 528.193L122.448 527.812C123.97 529.1 125.498 530.377 127.034 531.642L126.716 532.028C127.743 532.874 128.773 533.715 129.806 534.55L130.12 534.161C131.67 535.415 133.228 536.657 134.793 537.886L134.484 538.279C135.529 539.101 136.579 539.918 137.631 540.729L137.936 540.333C139.515 541.55 141.101 542.755 142.695 543.947L142.395 544.348C143.46 545.144 144.528 545.936 145.6 546.722L145.896 546.318C147.503 547.497 149.118 548.663 150.74 549.816L150.451 550.224C151.535 550.995 152.622 551.759 153.713 552.519L153.999 552.108C155.634 553.247 157.278 554.372 158.929 555.485L158.649 555.899C159.752 556.642 160.859 557.38 161.969 558.111L162.244 557.694C163.907 558.79 165.579 559.873 167.258 560.943L166.99 561.365C168.111 562.079 169.236 562.788 170.365 563.491L170.629 563.066C172.32 564.119 174.019 565.158 175.727 566.184L175.469 566.612C176.609 567.297 177.753 567.976 178.9 568.648L179.153 568.217C180.871 569.224 182.597 570.218 184.332 571.197L184.086 571.633C185.243 572.286 186.404 572.934 187.57 573.576L187.811 573.138C189.555 574.098 191.308 575.044 193.069 575.976L192.835 576.418C194.01 577.04 195.188 577.656 196.371 578.265L196.6 577.821C198.369 578.733 200.147 579.63 201.934 580.514L201.712 580.962C202.904 581.551 204.099 582.134 205.298 582.71L205.515 582.259C207.308 583.121 209.111 583.969 210.922 584.802L210.713 585.256C211.92 585.811 213.131 586.36 214.346 586.903L214.55 586.446C216.367 587.257 218.193 588.054 220.027 588.835L219.831 589.295C221.054 589.816 222.28 590.33 223.51 590.838L223.701 590.376C225.54 591.135 227.387 591.879 229.244 592.608L229.061 593.074C230.297 593.559 231.538 594.039 232.782 594.511L232.96 594.044C234.819 594.75 236.687 595.441 238.564 596.117L238.394 596.587C239.02 596.812 239.647 597.036 240.275 597.258L240.832 597.455C241.267 597.608 241.702 597.761 242.137 597.914L242.302 597.442C244.164 598.095 246.029 598.74 247.897 599.376L247.736 599.849C248.982 600.273 250.229 600.694 251.478 601.111L251.636 600.636C253.508 601.261 255.383 601.877 257.26 602.482L257.106 602.958C258.36 603.363 259.614 603.763 260.869 604.158L261.019 603.681C262.902 604.274 264.787 604.857 266.675 605.429L266.53 605.908C267.79 606.29 269.051 606.667 270.314 607.039L270.455 606.56C272.349 607.118 274.244 607.665 276.142 608.2L276.007 608.681C277.275 609.038 278.544 609.39 279.814 609.737L279.945 609.254C281.85 609.774 283.756 610.281 285.665 610.775L285.54 611.259C286.815 611.589 288.092 611.913 289.369 612.232L289.49 611.746C291.406 612.224 293.324 612.687 295.244 613.137L295.13 613.624C296.413 613.924 297.697 614.218 298.981 614.505L299.091 614.017C301.017 614.448 302.946 614.864 304.876 615.265L304.775 615.755C306.065 616.022 307.356 616.283 308.648 616.537L308.744 616.047C310.682 616.427 312.621 616.792 314.562 617.14L314.473 617.632C315.77 617.865 317.068 618.09 318.367 618.307L318.45 617.814C320.397 618.14 322.345 618.449 324.296 618.741L324.222 619.235C325.525 619.43 326.829 619.616 328.134 619.795L328.202 619.299C330.158 619.567 332.115 619.816 334.073 620.046L334.015 620.543C335.324 620.696 336.633 620.842 337.943 620.978L337.995 620.481C339.958 620.686 341.923 620.871 343.888 621.035L343.846 621.534C345.16 621.644 346.473 621.745 347.788 621.837L347.823 621.338C349.791 621.476 351.76 621.592 353.731 621.688L353.707 622.187C355.023 622.251 356.34 622.305 357.657 622.35L357.674 621.85C359.645 621.917 361.618 621.961 363.591 621.984L363.586 622.484C364.903 622.498 366.221 622.503 367.539 622.498L367.537 621.998C369.509 621.99 371.482 621.959 373.456 621.904L373.47 622.404C374.786 622.367 376.103 622.32 377.42 622.263L377.399 621.763C379.368 621.677 381.338 621.567 383.309 621.432L383.343 621.931C384.656 621.841 385.97 621.74 387.285 621.628L387.242 621.13C389.205 620.963 391.169 620.771 393.133 620.554L393.188 621.051C394.497 620.906 395.805 620.75 397.114 620.582L397.051 620.086C399.004 619.836 400.957 619.56 402.911 619.257L402.988 619.752C403.639 619.651 404.291 619.547 404.943 619.44C405.614 619.331 406.284 619.219 406.955 619.107L406.872 618.613C408.881 618.276 410.89 617.924 412.897 617.56L412.987 618.052C414.325 617.808 415.663 617.559 417 617.303L416.906 616.812C418.908 616.43 420.908 616.033 422.905 615.623L423.006 616.112C424.339 615.838 425.67 615.558 427.001 615.271L426.896 614.782C428.888 614.353 430.878 613.909 432.865 613.45L432.977 613.937C434.303 613.631 435.628 613.318 436.951 612.999L436.833 612.513C438.815 612.034 440.793 611.54 442.767 611.031L442.892 611.515C444.21 611.175 445.526 610.828 446.84 610.474L446.71 609.992C448.679 609.461 450.644 608.915 452.603 608.353L452.741 608.834C454.049 608.458 455.355 608.076 456.659 607.686L456.516 607.207C458.47 606.622 460.418 606.021 462.361 605.404L462.512 605.88C463.809 605.468 465.104 605.048 466.396 604.62L466.239 604.146C468.175 603.505 470.105 602.847 472.027 602.171L472.193 602.643C473.478 602.191 474.76 601.732 476.038 601.265L475.866 600.795C477.782 600.095 479.691 599.377 481.59 598.641L481.771 599.107C483.041 598.615 484.307 598.115 485.57 597.607L485.383 597.143C487.275 596.381 489.159 595.6 491.033 594.801L491.229 595.261C492.482 594.726 493.731 594.183 494.975 593.632L494.772 593.175C496.637 592.349 498.493 591.503 500.337 590.638L500.55 591.09C501.783 590.512 503.011 589.925 504.234 589.329L504.015 588.88C505.85 587.986 507.673 587.073 509.484 586.14L509.713 586.584C510.924 585.96 512.129 585.327 513.33 584.685L513.094 584.244C514.892 583.281 516.678 582.298 518.452 581.295L518.698 581.73C519.884 581.058 521.063 580.378 522.237 579.688L521.984 579.257C523.742 578.223 525.487 577.169 527.218 576.092L527.482 576.517C528.638 575.798 529.789 575.069 530.933 574.33L530.662 573.91C532.374 572.804 534.073 571.676 535.756 570.526L536.038 570.938C537.162 570.17 538.28 569.391 539.391 568.603L539.102 568.195C540.764 567.015 542.41 565.813 544.04 564.588L544.341 564.987C545.429 564.169 546.511 563.341 547.585 562.502L547.277 562.108C548.883 560.854 550.472 559.577 552.044 558.276L552.363 558.661C553.412 557.793 554.453 556.915 555.486 556.026L555.16 555.647C556.704 554.319 558.23 552.967 559.739 551.591L560.076 551.961C561.081 551.044 562.078 550.116 563.067 549.178L562.723 548.815C564.199 547.414 565.657 545.989 567.096 544.539L567.451 544.892C567.931 544.408 568.409 543.922 568.885 543.432C569.349 542.955 569.811 542.476 570.271 541.995L569.909 541.65C571.286 540.209 572.641 538.752 573.975 537.278L574.346 537.614C575.239 536.628 576.122 535.635 576.996 534.635L576.619 534.306C577.93 532.805 579.22 531.29 580.488 529.759L580.873 530.078C581.722 529.053 582.562 528.022 583.392 526.984L583.002 526.671C584.245 525.116 585.468 523.546 586.67 521.962L587.069 522.264C587.873 521.205 588.667 520.139 589.453 519.067L589.05 518.771C590.226 517.165 591.382 515.546 592.518 513.912L592.928 514.198C593.687 513.106 594.437 512.008 595.178 510.905L594.763 510.626C595.872 508.974 596.962 507.308 598.031 505.63L598.453 505.899C599.167 504.777 599.873 503.651 600.569 502.519L600.144 502.257C601.186 500.562 602.209 498.855 603.213 497.136L603.645 497.388C604.315 496.241 604.977 495.088 605.63 493.93L605.194 493.684C606.171 491.951 607.129 490.207 608.068 488.452L608.509 488.687C609.136 487.516 609.754 486.339 610.364 485.158L609.92 484.928C610.833 483.161 611.727 481.383 612.603 479.595L613.052 479.815C613.636 478.621 614.212 477.424 614.78 476.222L614.328 476.008C615.178 474.21 616.01 472.402 616.823 470.584L617.28 470.789C617.823 469.576 618.357 468.36 618.884 467.14L618.425 466.941C619.214 465.115 619.985 463.281 620.738 461.437L621.201 461.627C621.704 460.397 622.199 459.164 622.686 457.927L622.221 457.743C622.95 455.893 623.662 454.035 624.357 452.169L624.825 452.343C625.289 451.098 625.745 449.85 626.194 448.599L625.723 448.43C626.395 446.558 627.05 444.678 627.688 442.792L628.161 442.952C628.587 441.694 629.006 440.434 629.417 439.17L628.942 439.015C629.557 437.124 630.157 435.226 630.74 433.322L631.218 433.469C631.608 432.199 631.99 430.926 632.365 429.652L631.886 429.51C632.447 427.602 632.994 425.688 633.524 423.769L634.006 423.903C634.194 423.225 634.379 422.546 634.563 421.867C634.726 421.264 634.888 420.66 635.048 420.055L634.564 419.927C635.074 418.004 635.569 416.076 636.048 414.144L636.534 414.265C636.853 412.976 637.167 411.685 637.474 410.392L636.987 410.277C637.447 408.341 637.891 406.401 638.321 404.457L638.81 404.566C639.097 403.269 639.377 401.97 639.652 400.67L639.162 400.567C639.573 398.62 639.97 396.669 640.353 394.717L640.843 394.813C641.099 393.509 641.348 392.204 641.591 390.899L641.099 390.807C641.463 388.85 641.813 386.891 642.15 384.93L642.643 385.015C642.867 383.705 643.086 382.395 643.299 381.084L642.805 381.004C643.124 379.039 643.429 377.072 643.721 375.104L644.216 375.178C644.313 374.521 644.409 373.864 644.504 373.207C644.552 372.872 644.6 372.536 644.647 372.201C644.693 371.878 644.738 371.554 644.783 371.231L644.288 371.162C644.562 369.188 644.822 367.211 645.067 365.232L645.563 365.294C645.727 363.973 645.884 362.652 646.034 361.33L645.537 361.273C645.763 359.292 645.973 357.31 646.168 355.326L646.666 355.375C646.796 354.051 646.92 352.726 647.037 351.4L646.539 351.356C646.714 349.37 646.874 347.383 647.018 345.395L647.516 345.431C647.613 344.103 647.702 342.776 647.785 341.448L647.286 341.417C647.409 339.426 647.517 337.436 647.609 335.445L648.108 335.468C648.17 334.138 648.224 332.809 648.271 331.479L647.771 331.461C647.842 329.468 647.896 327.476 647.934 325.483L648.434 325.493C648.459 324.162 648.478 322.831 648.488 321.5L647.988 321.496C648.004 319.502 648.004 317.508 647.987 315.516L648.487 315.511C648.475 314.18 648.456 312.849 648.429 311.519L647.929 311.529C647.889 309.535 647.833 307.542 647.758 305.551L648.258 305.532C648.208 304.202 648.151 302.872 648.086 301.543L647.587 301.568C647.489 299.576 647.374 297.585 647.242 295.597L647.741 295.564C647.652 294.235 647.556 292.908 647.451 291.581L646.953 291.62C646.796 289.632 646.622 287.646 646.429 285.663L646.927 285.614C646.798 284.289 646.661 282.965 646.516 281.642L646.019 281.697C645.802 279.714 645.566 277.735 645.312 275.758L645.808 275.694C645.638 274.374 645.46 273.055 645.273 271.737L644.778 271.807C644.499 269.833 644.201 267.862 643.883 265.894L644.377 265.815C644.165 264.5 643.944 263.187 643.715 261.876L643.223 261.962C642.88 259.998 642.517 258.038 642.135 256.081L642.626 255.986C642.371 254.679 642.107 253.374 641.834 252.071L641.345 252.173C640.937 250.222 640.509 248.275 640.061 246.333L640.548 246.22C640.249 244.923 639.941 243.628 639.624 242.335L639.138 242.454C638.663 240.518 638.169 238.586 637.653 236.661L638.136 236.531C637.792 235.245 637.439 233.962 637.077 232.68L636.596 232.816C636.054 230.898 635.491 228.986 634.908 227.079L635.386 226.933C634.996 225.66 634.597 224.39 634.189 223.122L633.713 223.275C633.103 221.378 632.471 219.488 631.819 217.603L632.291 217.439C631.855 216.182 631.41 214.927 630.956 213.675L630.486 213.845C629.806 211.973 629.105 210.106 628.383 208.247L628.849 208.066C628.366 206.825 627.875 205.588 627.373 204.353L626.91 204.541C626.161 202.696 625.39 200.857 624.597 199.026L625.056 198.827C624.527 197.607 623.989 196.389 623.441 195.175L622.985 195.381C622.166 193.566 621.325 191.758 620.462 189.959L620.913 189.743C620.625 189.142 620.334 188.542 620.041 187.943C619.752 187.353 619.461 186.764 619.167 186.176L618.72 186.4C617.84 184.64 616.939 182.894 616.017 181.162L616.459 180.928C615.842 179.768 615.215 178.615 614.58 177.469L614.143 177.711C613.189 175.991 612.215 174.284 611.221 172.592L611.652 172.339C610.987 171.206 610.313 170.079 609.63 168.959L609.203 169.219C608.179 167.54 607.136 165.876 606.074 164.225L606.494 163.954C605.784 162.85 605.065 161.752 604.337 160.661L603.921 160.938C602.831 159.302 601.722 157.68 600.595 156.072L601.005 155.785C600.251 154.71 599.49 153.642 598.721 152.579L598.316 152.872C597.163 151.28 595.993 149.702 594.805 148.138L595.203 147.835C594.41 146.79 593.609 145.751 592.8 144.718L592.406 145.026C591.195 143.479 589.967 141.945 588.723 140.424L589.11 140.108C588.279 139.092 587.441 138.083 586.595 137.079L586.213 137.401C584.948 135.899 583.666 134.41 582.37 132.933L582.745 132.603C581.879 131.617 581.007 130.637 580.128 129.663L579.756 129.998C578.441 128.54 577.11 127.095 575.764 125.662L576.129 125.32C575.231 124.364 574.327 123.413 573.416 122.468L573.056 122.815C571.694 121.401 570.317 119.999 568.927 118.609L569.28 118.255C568.353 117.328 567.42 116.407 566.481 115.49L566.132 115.848C564.726 114.477 563.308 113.118 561.876 111.77L562.219 111.406C561.265 110.507 560.304 109.613 559.339 108.725L559 109.092C557.555 107.763 556.098 106.445 554.629 105.138L554.962 104.765C553.982 103.893 552.997 103.027 552.007 102.165L551.679 102.542C550.198 101.253 548.706 99.9751 547.203 98.708L547.525 98.3257C546.523 97.4809 545.516 96.6409 544.504 95.8058L544.186 96.1914C542.671 94.9412 541.147 93.7018 539.612 92.473L539.925 92.0827C538.902 91.2633 537.874 90.4485 536.842 89.6383L536.533 90.0316C534.989 88.8189 533.435 87.6166 531.872 86.4245L532.175 86.0269C531.133 85.2318 530.086 84.4411 529.036 83.655L528.737 84.0553C527.164 82.8784 525.583 81.7116 523.995 80.5546L524.289 80.1504C523.229 79.3787 522.166 78.6114 521.1 77.8485L520.809 78.2552C519.211 77.1124 517.606 75.9793 515.994 74.8557L516.28 74.4455C515.204 73.6959 514.125 72.9506 513.043 72.2095L512.761 72.6219C511.14 71.5116 509.513 70.4106 507.879 69.3188L508.157 68.9031C507.067 68.1746 505.974 67.4502 504.879 66.7298L504.604 67.1475C502.963 66.0679 501.315 64.9973 499.662 63.9356L499.932 63.5149C498.829 62.8063 497.724 62.1016 496.616 61.4008L496.349 61.8233C494.688 60.7726 493.022 59.7307 491.352 58.6973L491.615 58.2721C491.057 57.9273 490.499 57.5835 489.941 57.2406Z" stroke="#3B3A35" stroke-miterlimit="1.30541" stroke-dasharray="4 6"/>
</svg>
