<svg width="251" height="231" viewBox="0 0 251 231" fill="none" xmlns="http://www.w3.org/2000/svg">
<path d="M190.358 162.659L191.17 163.242L190.358 162.659ZM1.34083 214.505C0.925554 214.869 0.884106 215.501 1.24822 215.916L7.18184 222.683C7.54594 223.098 8.17775 223.14 8.59302 222.776C9.00826 222.412 9.04973 221.78 8.68561 221.364L3.41128 215.349L9.4264 210.075C9.84164 209.711 9.88312 209.079 9.51899 208.664C9.15487 208.249 8.52306 208.207 8.10782 208.571L1.34083 214.505ZM248.467 0.985401C247.49 0.774907 247.49 0.774903 247.49 0.774901C247.49 0.774903 247.49 0.774904 247.49 0.77491C247.49 0.774921 247.49 0.774942 247.49 0.774972C247.49 0.775036 247.49 0.775138 247.49 0.775281C247.49 0.775567 247.49 0.776016 247.489 0.776625C247.489 0.777844 247.489 0.779709 247.488 0.782217C247.487 0.787232 247.485 0.79482 247.483 0.804962C247.479 0.825243 247.472 0.855736 247.463 0.896284C247.446 0.977378 247.419 1.09869 247.384 1.25896C247.314 1.5795 247.209 2.05588 247.07 2.67803L249.022 3.11422C249.161 2.48938 249.267 2.01039 249.338 1.68732C249.373 1.52578 249.4 1.40323 249.418 1.3209C249.427 1.27974 249.434 1.24864 249.438 1.22775C249.44 1.21731 249.442 1.20942 249.443 1.2041C249.444 1.20144 249.444 1.19943 249.445 1.19806C249.445 1.19738 249.445 1.19685 249.445 1.19649C249.445 1.19631 249.445 1.19617 249.445 1.19607C249.445 1.19602 249.445 1.19598 249.445 1.19595C249.445 1.19594 249.445 1.19592 249.445 1.19592C249.445 1.1959 249.445 1.19589 248.467 0.985401ZM245.699 8.66769C245.421 9.85652 245.112 11.1658 244.773 12.5858L246.719 13.0502C247.058 11.6269 247.368 10.3145 247.646 9.1226L245.699 8.66769ZM243.339 18.5073C243.03 19.7646 242.704 21.0767 242.363 22.4396L244.304 22.9251C244.645 21.5593 244.971 20.2445 245.281 18.9846L243.339 18.5073ZM240.861 28.367C240.534 29.6379 240.197 30.9415 239.849 32.2753L241.784 32.7806C242.133 31.4441 242.471 30.1379 242.798 28.8645L240.861 28.367ZM238.29 38.1687C237.947 39.452 237.595 40.7573 237.234 42.0828L239.164 42.608C239.525 41.2798 239.878 39.9718 240.222 38.6859L238.29 38.1687ZM235.616 47.955C235.255 49.2496 234.886 50.5596 234.511 51.8835L236.435 52.4294C236.811 51.1026 237.18 49.7898 237.542 48.4925L235.616 47.955ZM232.828 57.7391C232.455 59.0203 232.076 60.3119 231.691 61.6127L233.609 62.1804C233.995 60.8766 234.375 59.582 234.748 58.2979L232.828 57.7391ZM229.942 67.445C229.549 68.7355 229.152 70.033 228.748 71.3361L230.659 71.9274C231.063 70.6209 231.462 69.3203 231.855 68.0266L229.942 67.445ZM226.926 77.1455C226.518 78.427 226.105 79.7122 225.687 81.0002L227.59 81.6172C228.009 80.3256 228.422 79.0368 228.831 77.7519L226.926 77.1455ZM223.784 86.7834C223.355 88.0652 222.922 89.3481 222.485 90.631L224.378 91.2766C224.817 89.9897 225.251 88.7029 225.681 87.4172L223.784 86.7834ZM220.493 96.3788C220.043 97.6548 219.589 98.9294 219.131 100.201L221.013 100.879C221.473 99.6027 221.928 98.3237 222.379 97.0433L220.493 96.3788ZM217.037 105.914C216.563 107.182 216.085 108.446 215.604 109.706L217.471 110.42C217.955 109.156 218.435 107.886 218.91 106.613L217.037 105.914ZM213.391 115.374C212.89 116.634 212.384 117.888 211.874 119.133L213.724 119.891C214.237 118.639 214.745 117.38 215.249 116.114L213.391 115.374ZM209.527 124.736C208.992 125.987 208.452 127.227 207.908 128.456L209.737 129.265C210.284 128.029 210.827 126.781 211.366 125.524L209.527 124.736ZM205.394 133.991C204.819 135.224 204.24 136.442 203.657 137.645L205.457 138.517C206.045 137.305 206.628 136.078 207.207 134.836L205.394 133.991ZM200.945 143.072C200.32 144.283 199.691 145.474 199.058 146.645L200.817 147.596C201.456 146.414 202.091 145.211 202.722 143.989L200.945 143.072ZM196.087 151.928C195.394 153.113 194.696 154.27 193.995 155.399L195.693 156.455C196.405 155.31 197.112 154.137 197.814 152.938L196.087 151.928ZM190.685 160.458C190.306 161.006 189.927 161.546 189.546 162.076L191.17 163.242C191.558 162.702 191.945 162.152 192.331 161.594L190.685 160.458ZM189.546 162.076C189.158 162.615 188.763 163.15 188.361 163.678L189.952 164.89C190.366 164.346 190.772 163.797 191.17 163.242L189.546 162.076ZM184.542 168.29C183.656 169.278 182.742 170.245 181.801 171.192L183.22 172.601C184.184 171.631 185.121 170.639 186.031 169.626L184.542 168.29ZM177.427 175.289C176.424 176.165 175.398 177.022 174.348 177.86L175.597 179.423C176.668 178.567 177.717 177.691 178.743 176.796L177.427 175.289ZM169.542 181.463C168.457 182.227 167.352 182.973 166.229 183.703L167.319 185.38C168.462 184.637 169.587 183.877 170.693 183.098L169.542 181.463ZM161.096 186.851C159.943 187.518 158.774 188.17 157.59 188.806L158.536 190.568C159.739 189.922 160.926 189.26 162.097 188.582L161.096 186.851ZM152.223 191.539C151.018 192.121 149.8 192.688 148.57 193.242L149.39 195.066C150.637 194.505 151.871 193.93 153.093 193.34L152.223 191.539ZM143.027 195.612C141.79 196.114 140.542 196.604 139.285 197.081L139.995 198.951C141.266 198.469 142.528 197.973 143.78 197.465L143.027 195.612ZM133.601 199.135C132.336 199.57 131.064 199.993 129.785 200.405L130.398 202.309C131.689 201.893 132.973 201.466 134.251 201.027L133.601 199.135ZM124.006 202.176C122.718 202.551 121.424 202.916 120.127 203.27L120.653 205.2C121.962 204.842 123.266 204.475 124.566 204.096L124.006 202.176ZM114.275 204.791C112.97 205.114 111.663 205.426 110.353 205.729L110.804 207.677C112.123 207.372 113.44 207.058 114.755 206.733L114.275 204.791ZM104.446 207.027C103.127 207.302 101.808 207.568 100.489 207.825L100.871 209.788C102.199 209.53 103.527 209.262 104.854 208.985L104.446 207.027ZM94.5433 208.922C93.2124 209.155 91.8833 209.379 90.5569 209.594L90.8773 211.568C92.2115 211.352 93.5487 211.127 94.8878 210.893L94.5433 208.922ZM84.5729 210.512C83.2379 210.705 81.9072 210.89 80.5817 211.066L80.8461 213.049C82.1786 212.871 83.5166 212.685 84.859 212.491L84.5729 210.512ZM74.5647 211.82C73.2229 211.977 71.8883 212.126 70.5619 212.268L70.7745 214.257C72.1075 214.114 73.4489 213.964 74.7975 213.806L74.5647 211.82ZM64.5447 212.867C63.1845 212.992 61.8352 213.11 60.498 213.22L60.6625 215.213C62.006 215.102 63.3616 214.984 64.7282 214.858L64.5447 212.867ZM54.4596 213.676C53.1076 213.769 51.7707 213.855 50.4505 213.934L50.5699 215.931C51.8959 215.851 53.2387 215.765 54.5967 215.672L54.4596 213.676ZM44.3892 214.257C43.0158 214.321 41.6645 214.378 40.337 214.428L40.413 216.427C41.746 216.376 43.1031 216.319 44.4823 216.254L44.3892 214.257ZM34.2801 214.619C32.9134 214.654 31.5786 214.682 30.2782 214.704L30.3118 216.703C31.6178 216.681 32.9581 216.653 34.3306 216.619L34.2801 214.619ZM24.2009 214.767C22.8124 214.772 21.4764 214.771 20.1967 214.765L20.187 216.765C21.4724 216.771 22.8142 216.772 24.2087 216.767L24.2009 214.767ZM14.0786 214.693C12.6094 214.665 11.2579 214.632 10.0337 214.596L9.97535 216.596C11.2062 216.631 12.5646 216.665 14.0409 216.693L14.0786 214.693ZM4.01007 214.366C3.37253 214.334 2.88512 214.307 2.55773 214.289C2.39406 214.279 2.27036 214.272 2.18793 214.267C2.1467 214.264 2.1158 214.262 2.09536 214.261C2.08515 214.26 2.07753 214.26 2.07257 214.259C2.07008 214.259 2.06826 214.259 2.0671 214.259C2.06651 214.259 2.06609 214.259 2.06585 214.259C2.06571 214.259 2.06563 214.259 2.06559 214.259C2.06556 214.259 2.06556 214.259 2.06556 214.259C2.06557 214.259 2.06559 214.259 2.00011 215.257C1.93463 216.255 1.93466 216.255 1.93467 216.255C1.93467 216.255 1.93471 216.255 1.93473 216.255C1.93475 216.255 1.93481 216.255 1.93487 216.255C1.93501 216.255 1.93516 216.255 1.93538 216.255C1.93577 216.255 1.93636 216.255 1.93711 216.255C1.9386 216.255 1.94074 216.255 1.94356 216.255C1.94916 216.256 1.95742 216.256 1.9683 216.257C1.99004 216.258 2.02226 216.26 2.06481 216.263C2.14988 216.268 2.27625 216.276 2.44268 216.285C2.77552 216.304 3.26858 216.332 3.91194 216.363L4.01007 214.366ZM190.358 162.659L191.983 163.826L190.358 162.659ZM0.681528 213.753C-0.148987 214.481 -0.231911 215.745 0.496334 216.575L12.3636 230.109C13.0918 230.94 14.3554 231.023 15.1859 230.295C16.0164 229.566 16.0993 228.303 15.3711 227.472L4.82246 215.442L16.8527 204.893C17.6832 204.165 17.7661 202.901 17.0379 202.071C16.3096 201.24 15.046 201.158 14.2155 201.886L0.681528 213.753ZM248.467 0.985401C246.512 0.564414 246.512 0.564402 246.512 0.564393C246.512 0.564394 246.512 0.564387 246.512 0.564388C246.512 0.564389 246.512 0.564401 246.512 0.564423C246.512 0.564467 246.512 0.564551 246.512 0.564676C246.512 0.564924 246.512 0.565335 246.512 0.565908C246.512 0.567051 246.511 0.568841 246.511 0.571274C246.51 0.576139 246.508 0.583577 246.506 0.593566C246.502 0.613545 246.495 0.643734 246.486 0.683974C246.469 0.764454 246.443 0.885142 246.407 1.04478C246.337 1.36406 246.233 1.83913 246.094 2.45993L249.998 3.33231C250.138 2.70613 250.244 2.22584 250.315 1.9015C250.35 1.73933 250.377 1.61615 250.395 1.53321C250.404 1.49174 250.411 1.46034 250.415 1.43915C250.418 1.42855 250.42 1.42051 250.421 1.41505C250.421 1.41231 250.422 1.41022 250.422 1.40878C250.422 1.40806 250.422 1.4075 250.422 1.4071C250.422 1.4069 250.422 1.40674 250.423 1.40662C250.423 1.40656 250.423 1.40651 250.423 1.40647C250.423 1.40646 250.423 1.40643 250.423 1.40642C250.423 1.40641 250.423 1.40639 248.467 0.985401ZM244.725 8.44023C244.447 9.62754 244.139 10.9352 243.801 12.3536L247.691 13.2824C248.031 11.8574 248.341 10.5435 248.62 9.35006L244.725 8.44023ZM242.367 18.2687C242.059 19.5246 241.734 20.8354 241.393 22.1969L245.274 23.1678C245.616 21.8007 245.942 20.4845 246.252 19.2232L242.367 18.2687ZM239.892 28.1183C239.566 29.3879 239.229 30.6902 238.881 32.0227L242.751 33.0333C243.101 31.6954 243.439 30.3879 243.767 29.1132L239.892 28.1183ZM237.324 37.9101C236.981 39.1921 236.629 40.4961 236.269 41.8202L240.129 42.8706C240.491 41.541 240.844 40.2317 241.188 38.9445L237.324 37.9101ZM234.653 47.6862C234.292 48.9794 233.924 50.288 233.548 51.6105L237.397 52.7023C237.773 51.3741 238.143 50.0599 238.505 48.7612L234.653 47.6862ZM231.868 57.4597C231.495 58.7395 231.117 60.0296 230.732 61.3288L234.568 62.4642C234.954 61.159 235.334 59.8629 235.709 58.5773L231.868 57.4597ZM228.985 67.1542C228.593 68.4432 228.196 69.739 227.793 71.0404L231.614 72.223C232.019 70.9149 232.418 69.6127 232.812 68.3174L228.985 67.1542ZM225.973 76.8422C225.565 78.122 225.153 79.4055 224.736 80.6917L228.541 81.9257C228.96 80.6323 229.375 79.3418 229.784 78.0551L225.973 76.8422ZM222.835 86.4665C222.408 87.7464 221.975 89.0273 221.538 90.3082L225.324 91.5995C225.764 90.3105 226.199 89.0217 226.629 87.7341L222.835 86.4665ZM219.55 96.0465C219.101 97.3204 218.648 98.5927 218.19 99.8625L221.953 101.218C222.414 99.9393 222.87 98.6581 223.322 97.3755L219.55 96.0465ZM216.1 105.564C215.627 106.83 215.15 108.092 214.67 109.348L218.405 110.778C218.89 109.511 219.371 108.239 219.847 106.963L216.1 105.564ZM212.462 115.004C211.962 116.262 211.457 117.512 210.948 118.754L214.65 120.27C215.164 119.015 215.673 117.753 216.179 116.484L212.462 115.004ZM208.608 124.343C208.074 125.59 207.536 126.826 206.994 128.051L210.652 129.67C211.2 128.43 211.745 127.179 212.285 125.918L208.608 124.343ZM204.488 133.568C203.915 134.797 203.338 136.011 202.758 137.209L206.357 138.953C206.947 137.737 207.532 136.505 208.113 135.259L204.488 133.568ZM200.056 142.613C199.434 143.819 198.808 145.004 198.178 146.169L201.696 148.072C202.339 146.884 202.977 145.675 203.61 144.448L200.056 142.613ZM195.224 151.423C194.535 152.6 193.842 153.75 193.145 154.871L196.542 156.983C197.259 155.83 197.97 154.65 198.677 153.443L195.224 151.423ZM189.862 159.89C189.487 160.433 189.111 160.968 188.734 161.492L191.983 163.826C192.374 163.28 192.765 162.726 193.154 162.162L189.862 159.89ZM188.734 161.492C188.352 162.024 187.962 162.551 187.565 163.073L190.747 165.496C191.167 164.945 191.579 164.388 191.983 163.826L188.734 161.492ZM183.798 167.622C182.923 168.597 182.02 169.552 181.091 170.487L183.929 173.306C184.905 172.324 185.854 171.32 186.775 170.294L183.798 167.622ZM176.769 174.536C175.778 175.402 174.762 176.25 173.724 177.079L176.221 180.204C177.304 179.339 178.364 178.454 179.401 177.549L176.769 174.536ZM168.966 180.645C167.892 181.402 166.798 182.141 165.684 182.864L167.864 186.219C169.017 185.469 170.153 184.702 171.269 183.916L168.966 180.645ZM160.595 185.985C159.451 186.647 158.291 187.294 157.116 187.925L159.01 191.449C160.221 190.798 161.418 190.131 162.598 189.447L160.595 185.985ZM151.789 190.639C150.592 191.216 149.382 191.78 148.159 192.33L149.801 195.978C151.055 195.414 152.297 194.835 153.527 194.241L151.789 190.639ZM142.651 194.685C141.421 195.185 140.18 195.672 138.93 196.147L140.35 199.886C141.628 199.401 142.897 198.903 144.156 198.391L142.651 194.685ZM133.276 198.19C132.017 198.622 130.751 199.043 129.479 199.453L130.704 203.26C132.001 202.843 133.292 202.414 134.576 201.973L133.276 198.19ZM123.726 201.216C122.443 201.59 121.155 201.953 119.863 202.306L120.917 206.164C122.231 205.806 123.54 205.436 124.846 205.056L123.726 201.216ZM114.035 203.82C112.735 204.142 111.433 204.453 110.128 204.754L111.029 208.652C112.353 208.346 113.675 208.03 114.995 207.703L114.035 203.82ZM104.241 206.048C102.927 206.322 101.612 206.587 100.298 206.843L101.062 210.77C102.394 210.51 103.726 210.242 105.059 209.964L104.241 206.048ZM94.3711 207.937C93.0443 208.169 91.7191 208.393 90.3966 208.607L91.0375 212.555C92.3757 212.338 93.7168 212.112 95.06 211.878L94.3711 207.937ZM84.4298 209.522C83.0985 209.715 81.7714 209.899 80.4496 210.075L80.9782 214.04C82.3143 213.862 83.656 213.676 85.0021 213.481L84.4298 209.522ZM74.4483 210.826C73.1099 210.983 71.7787 211.132 70.4556 211.274L70.8809 215.251C72.2171 215.108 73.5618 214.958 74.9139 214.799L74.4483 210.826ZM64.4529 211.871C63.096 211.996 61.7498 212.113 60.4157 212.223L60.7448 216.21C62.0913 216.099 63.4501 215.98 64.82 215.854L64.4529 211.871ZM54.391 212.679C53.042 212.772 51.7082 212.857 50.3908 212.936L50.6296 216.929C51.9585 216.849 53.3042 216.763 54.6653 216.669L54.391 212.679ZM44.3426 213.258C42.9721 213.322 41.6237 213.378 40.299 213.429L40.451 217.426C41.7868 217.375 43.1468 217.318 44.5289 217.253L44.3426 213.258ZM34.2549 213.62C32.8911 213.654 31.5591 213.682 30.2614 213.704L30.3286 217.703C31.6373 217.681 32.9805 217.653 34.3558 217.619L34.2549 213.62ZM24.197 213.767C22.8115 213.772 21.4784 213.771 20.2015 213.765L20.1823 217.765C21.4704 217.771 22.8152 217.772 24.2126 217.767L24.197 213.767ZM14.0975 213.693C12.6318 213.666 11.2837 213.632 10.0628 213.597L9.94619 217.595C11.1803 217.631 12.5422 217.665 14.022 217.693L14.0975 213.693ZM4.05915 213.367C3.4245 213.336 2.93992 213.309 2.61527 213.29C2.45294 213.281 2.3306 213.274 2.24949 213.269C2.20894 213.266 2.17868 213.264 2.1589 213.263C2.14899 213.262 2.14171 213.262 2.13708 213.261C2.13475 213.261 2.13308 213.261 2.13207 213.261C2.13158 213.261 2.13124 213.261 2.13108 213.261C2.131 213.261 2.13094 213.261 2.13094 213.261C2.13094 213.261 2.13096 213.261 2.13097 213.261C2.13098 213.261 2.13101 213.261 2.13101 213.261C2.13102 213.261 2.13107 213.261 2.00011 215.257C1.86915 217.253 1.86919 217.252 1.86922 217.253C1.86923 217.253 1.86927 217.252 1.8693 217.253C1.86937 217.253 1.86944 217.253 1.86952 217.253C1.86968 217.253 1.86989 217.253 1.87013 217.253C1.87062 217.253 1.87129 217.253 1.87211 217.253C1.87376 217.253 1.87606 217.253 1.87903 217.253C1.88499 217.254 1.89356 217.254 1.90477 217.255C1.92716 217.256 1.96004 217.258 2.00326 217.261C2.08965 217.266 2.21737 217.274 2.38517 217.284C2.72073 217.303 3.2166 217.33 3.86286 217.362L4.05915 213.367Z" fill="#959592"/>
</svg>
