<svg width="23" height="23" viewBox="0 0 23 23" fill="none" xmlns="http://www.w3.org/2000/svg">
<path d="M21.7734 4.5H5.875L5.52344 2.78125C5.44531 2.35156 5.05469 2 4.625 2H0.71875C0.445312 2 0.25 2.23438 0.25 2.46875V3.40625C0.25 3.67969 0.445312 3.875 0.71875 3.875H3.84375L6.53906 17.7812C6.10938 18.25 5.875 18.8359 5.875 19.5C5.875 20.9062 6.96875 22 8.375 22C9.74219 22 10.875 20.9062 10.875 19.5C10.875 19.0703 10.7188 18.6406 10.5234 18.25H16.1875C15.9922 18.6406 15.875 19.0703 15.875 19.5C15.875 20.9062 16.9688 22 18.375 22C19.7422 22 20.875 20.9062 20.875 19.5C20.875 18.7969 20.5625 18.1719 20.0938 17.7031L20.1328 17.5469C20.25 16.9609 19.8203 16.375 19.1953 16.375H8.17969L7.82812 14.5H20.0156C20.4844 14.5 20.8359 14.2266 20.9531 13.7969L22.7109 5.67188C22.8281 5.08594 22.3984 4.5 21.7734 4.5ZM8.375 20.4375C7.82812 20.4375 7.4375 20.0469 7.4375 19.5C7.4375 18.9922 7.82812 18.5625 8.375 18.5625C8.88281 18.5625 9.3125 18.9922 9.3125 19.5C9.3125 20.0469 8.88281 20.4375 8.375 20.4375ZM18.375 20.4375C17.8281 20.4375 17.4375 20.0469 17.4375 19.5C17.4375 18.9922 17.8281 18.5625 18.375 18.5625C18.8828 18.5625 19.3125 18.9922 19.3125 19.5C19.3125 20.0469 18.8828 20.4375 18.375 20.4375ZM19.2734 12.625H7.4375L6.22656 6.375H20.6406L19.2734 12.625Z" fill="#3B3A35"/>
</svg>
