<svg width="23" height="23" viewBox="0 0 23 23" fill="none" xmlns="http://www.w3.org/2000/svg">
<path d="M18.8906 4.03906C16.625 2.125 13.1484 2.39844 11 4.625C8.8125 2.39844 5.33594 2.125 3.07031 4.03906C0.140625 6.5 0.570312 10.5234 2.67969 12.6719L9.51562 19.6641C9.90625 20.0547 10.4141 20.2891 11 20.2891C11.5469 20.2891 12.0547 20.0547 12.4453 19.6641L19.3203 12.6719C21.3906 10.5234 21.8203 6.5 18.8906 4.03906ZM17.9531 11.3438L11.1172 18.3359C11.0391 18.4141 10.9609 18.4141 10.8438 18.3359L4.00781 11.3438C2.5625 9.89844 2.28906 7.16406 4.28125 5.48438C5.80469 4.19531 8.14844 4.39062 9.63281 5.875L11 7.28125L12.3672 5.875C13.8125 4.39062 16.1562 4.19531 17.6797 5.44531C19.6719 7.16406 19.3984 9.89844 17.9531 11.3438Z" fill="#3B3A35"/>
</svg>
