<svg width="23" height="23" viewBox="0 0 23 23" fill="none" xmlns="http://www.w3.org/2000/svg">
<path d="M15.9165 14.5417C14.3149 14.5417 14.0415 14.5027 13.0649 14.8152C12.4009 15.0496 11.6587 15.1667 10.9165 15.1667C10.1353 15.1667 9.39307 15.0496 8.729 14.8152C7.75244 14.5027 7.479 14.5417 5.9165 14.5417C3.14307 14.5417 0.916504 16.8074 0.916504 19.5417V20.1667C0.916504 20.8699 1.46338 21.4167 2.1665 21.4167H19.6665C20.3306 21.4167 20.9165 20.8699 20.9165 20.1667V19.5417C20.9165 16.8074 18.6509 14.5417 15.9165 14.5417ZM19.0415 19.5417H2.7915C2.7915 18.7214 3.104 17.9402 3.68994 17.3542C4.27588 16.7683 5.05713 16.4167 5.9165 16.4167C7.51807 16.4167 7.51807 16.3777 8.104 16.6121C9.00244 16.8855 9.93994 17.0417 10.9165 17.0417C11.854 17.0417 12.7915 16.8855 13.6899 16.6121C14.3149 16.3777 14.2759 16.4167 15.9165 16.4167C17.6353 16.4167 19.0415 17.823 19.0415 19.5417ZM10.9165 13.9167C14.354 13.9167 17.1665 11.1433 17.1665 7.66675C17.1665 4.22925 14.354 1.41675 10.9165 1.41675C7.43994 1.41675 4.6665 4.22925 4.6665 7.66675C4.6665 11.1433 7.43994 13.9167 10.9165 13.9167ZM10.9165 3.29175C13.2993 3.29175 15.2915 5.28394 15.2915 7.66675C15.2915 10.0886 13.2993 12.0417 10.9165 12.0417C8.49463 12.0417 6.5415 10.0886 6.5415 7.66675C6.5415 5.28394 8.49463 3.29175 10.9165 3.29175Z" fill="#3B3A35"/>
</svg>
