<svg width="19" height="19" viewBox="0 0 19 19" fill="none" xmlns="http://www.w3.org/2000/svg">
<g clip-path="url(#clip0_401_1148)">
<path d="M19.0181 17.946L14.5278 13.4558C14.4165 13.3816 14.3052 13.3074 14.1938 13.3074H13.7114C14.8618 11.9714 15.604 10.1902 15.604 8.2605C15.604 4.03003 12.1157 0.541748 7.88525 0.541748C3.61768 0.541748 0.166504 4.03003 0.166504 8.2605C0.166504 12.5281 3.61768 15.9792 7.88525 15.9792C9.81494 15.9792 11.5591 15.2742 12.9321 14.1238V14.6062C12.9321 14.7175 12.9692 14.8289 13.0435 14.9402L17.5337 19.4304C17.7192 19.616 18.0161 19.616 18.1646 19.4304L19.0181 18.5769C19.2036 18.4285 19.2036 18.1316 19.0181 17.946ZM7.88525 14.198C4.58252 14.198 1.94775 11.5632 1.94775 8.2605C1.94775 4.99487 4.58252 2.323 7.88525 2.323C11.1509 2.323 13.8228 4.99487 13.8228 8.2605C13.8228 11.5632 11.1509 14.198 7.88525 14.198Z" fill="#959592"/>
</g>
<defs>
<clipPath id="clip0_401_1148">
<rect width="19" height="19" fill="white"/>
</clipPath>
</defs>
</svg>
