<svg width="21" height="21" viewBox="0 0 21 21" fill="none" xmlns="http://www.w3.org/2000/svg">
<path d="M14.9375 14.2188C15.125 14.4062 15.375 14.5 15.6562 14.5H17C17.25 14.5 17.5 14.2812 17.5 14V12.6875C17.4688 12.4062 17.375 12.1562 17.1875 11.9688L9.96875 4.75L7.71875 7L14.9375 14.2188ZM7 6.28125L9.25 4.03125L7.9375 2.71875C7.8125 2.59375 7.625 2.53125 7.40625 2.53125C7.21875 2.53125 7.03125 2.59375 6.875 2.71875L5.71875 3.90625C5.5625 4.0625 5.5 4.25 5.5 4.4375C5.5 4.65625 5.5625 4.84375 5.71875 4.96875L7 6.28125ZM19.5 7.5H14.1562L17.9062 11.2812C18.25 11.625 18.5 12.125 18.5 12.6875V15C18.5 15.2812 18.25 15.5 18 15.5H3.75C3.59375 15.5 3.5 15.4062 3.5 15.25V14.75C3.5 14.625 3.59375 14.5 3.75 14.5H13.8438L11.8438 12.5H3.75C3.59375 12.5 3.5 12.4062 3.5 12.25V11.75C3.5 11.625 3.59375 11.5 3.75 11.5H10.8438L6.84375 7.5H1.5C0.9375 7.5 0.5 7.96875 0.5 8.5V17.5C0.5 18.0625 0.9375 18.5 1.5 18.5H19.5C20.0312 18.5 20.5 18.0625 20.5 17.5V8.5C20.5 7.96875 20.0312 7.5 19.5 7.5Z" fill="#067655"/>
</svg>
